<?xml version="1.0" encoding="utf-8"?>
<!-- Generator: Adobe Illustrator 28.1.0, SVG Export Plug-In . SVG Version: 6.00 Build 0)  -->
<svg version="1.1" id="Layer_1" xmlns="http://www.w3.org/2000/svg" xmlns:xlink="http://www.w3.org/1999/xlink" x="0px" y="0px"
	 viewBox="0 0 207 59.5" style="enable-background:new 0 0 207 59.5;" xml:space="preserve">
<g>
	<path d="M39.9,5.2c3.4,2,6.2,4.7,8.2,8.1s3,7.2,3,11.3c0,3.5-0.8,6.8-2.3,9.8s-3.6,5.6-6.3,7.7l8.1,15.2H2.2V2.2h26.4
		C32.7,2.2,36.5,3.2,39.9,5.2z"/>
	<path d="M83.6,2.2c3.5,0,6.6,0.8,9.4,2.3s5,3.6,6.5,6.1s2.4,5.1,2.4,7.8c0,3.6-1.2,6.7-3.7,9.4c2,1.5,3.5,3.2,4.4,5.2
		c1,2,1.5,4,1.5,6.3c0,3-0.9,5.9-2.6,8.7s-4.3,5-7.5,6.8c-3.2,1.8-7,2.6-11.2,2.6H55V2.2H83.6z"/>
	<path d="M123,2.9c3.5-1.4,7.2-2.2,11.1-2.2c3.8,0,7.4,0.7,11,2.2s6.7,3.6,9.5,6.3l-20.5,20.5l20.5,20.5c-2.8,2.8-5.9,4.9-9.5,6.3
		c-3.5,1.4-7.2,2.2-11,2.2c-3.8,0-7.5-0.7-11.1-2.2c-3.5-1.4-6.7-3.5-9.5-6.3c-2.8-2.8-4.9-5.9-6.3-9.5c-1.4-3.5-2.2-7.2-2.2-11.1
		c0-3.8,0.7-7.4,2.2-11s3.6-6.7,6.3-9.5C116.3,6.4,119.4,4.3,123,2.9z"/>
	<path d="M193.7,5.2c3.5,2,6.2,4.7,8.2,8.1s3,7.2,3,11.2c0,4-1,7.7-3,11.1c-2,3.4-4.7,6.1-8.1,8.2s-7.1,3-11.2,3v10.5h-26.6V2.2
		h26.4C186.5,2.2,190.2,3.2,193.7,5.2z"/>
</g>
</svg>
